<svg xmlns="http://www.w3.org/2000/svg" version="1.1" xmlns:xlink="http://www.w3.org/1999/xlink" xmlns:svgjs="http://svgjs.com/svgjs" width="2000" height="2000" preserveAspectRatio="none" viewBox="0 0 2000 2000"><g mask="url(&quot;#SvgjsMask1377&quot;)" fill="none"><rect width="2000" height="2000" x="0" y="0" fill="rgba(38, 40, 43, 1)"></rect><path d="M112.899,2186.492C242.197,2190.827,384.328,2172.926,453.53,2063.619C526.412,1948.5,499.711,1800.958,431.74,1682.873C363.594,1564.484,249.328,1464.994,112.899,1471.846C-15.533,1478.297,-94.527,1598.802,-154.908,1712.338C-210.534,1816.932,-248.599,1938.881,-190.339,2042.031C-131.323,2146.519,-7.036,2182.471,112.899,2186.492" fill="rgba(41, 196, 241, 0.3)" class="triangle-float2"></path><path d="M110.595,343.301C176.587,342.614,240.393,312.115,272.577,254.499C304.058,198.142,294.126,129.546,260.92,74.189C228.746,20.553,173.088,-12.966,110.595,-15.539C42.952,-18.324,-27.389,3.169,-62.815,60.86C-99.672,120.881,-94.187,197.909,-57.334,257.933C-22.12,315.288,43.296,344.001,110.595,343.301" fill="rgba(41, 196, 241, 0.3)" class="triangle-float2"></path><path d="M362.419,1944.04C541.806,1946.787,694.612,1817.832,774.651,1657.268C846.742,1512.648,804.672,1350.362,729.722,1207.203C647.084,1049.359,540.555,873.254,362.419,869.877C180.935,866.436,51.917,1030.734,-29.825,1192.804C-102.573,1337.041,-103.28,1501.77,-28.511,1644.969C52.879,1800.849,186.591,1941.347,362.419,1944.04" fill="rgba(41, 196, 241, 0.3)" class="triangle-float3"></path><path d="M440.206,821.246C516.423,815.894,562.458,746.143,600.87,680.096C639.591,613.519,682.644,536.291,645.018,469.089C606.892,400.995,518.052,387.622,440.206,393.141C372.618,397.933,317.366,438.303,280.192,494.953C237.931,559.355,201.134,636.622,235.051,705.783C272.083,781.297,356.307,827.137,440.206,821.246" fill="rgba(41, 196, 241, 0.3)" class="triangle-float1"></path><path d="M2099.986,1409.249C2272.591,1410.558,2426.564,1319.893,2523.796,1177.274C2637.566,1010.397,2734.75,799.303,2635.893,623.182C2535.807,444.871,2304.234,412.49,2099.986,422.224C1915.295,431.026,1735.087,508.448,1645.808,670.367C1559.164,827.507,1593.194,1018.059,1687.162,1170.932C1776.342,1316.015,1929.691,1407.958,2099.986,1409.249" fill="rgba(41, 196, 241, 0.3)" class="triangle-float1"></path><path d="M154.597,1012.1C213.016,1010.291,266.458,983.978,299.175,935.546C336.901,879.7,363.616,809.177,331.823,749.752C298.737,687.91,224.675,662.461,154.597,665.314C89.488,667.964,33.22,706.752,0.716,763.23C-31.702,819.56,-40.55,889.73,-6.37,945.008C26.396,997.999,92.324,1014.028,154.597,1012.1" fill="rgba(41, 196, 241, 0.3)" class="triangle-float3"></path><path d="M570.516,738.763C640.851,740.056,702.695,694.675,736.643,633.062C769.4,573.61,769.475,500.609,733.427,443.093C699.393,388.789,634.591,366.724,570.516,367.997C508.913,369.221,450.206,396.553,418.448,449.353C385.701,503.796,385.091,570.9,414.643,627.142C446.502,687.775,502.034,737.504,570.516,738.763" fill="rgba(41, 196, 241, 0.3)" class="triangle-float1"></path><path d="M900.205,304.946C999.347,301.261,1097.452,270.317,1151.735,187.275C1211.467,95.898,1230.792,-22.753,1176.227,-117.306C1121.647,-211.886,1009.117,-256.506,900.205,-248.591C803.413,-241.557,737.499,-163.867,685.904,-81.672C629.354,8.418,562.496,114.227,614.063,207.259C666.432,301.738,792.258,308.958,900.205,304.946" fill="rgba(41, 196, 241, 0.3)" class="triangle-float2"></path><path d="M305.44,682.705C408.039,685.58,522.065,667.824,573.322,578.9C624.538,490.046,581.029,383.543,528.733,295.32C477.79,209.379,405.266,130.942,305.44,126.981C199.566,122.78,100.642,183.666,49.189,276.292C-0.878,366.424,7.366,477.367,62.357,564.582C113.855,646.258,208.922,680,305.44,682.705" fill="rgba(41, 196, 241, 0.3)" class="triangle-float3"></path><path d="M354.446,994.541C446.91,990.809,508.751,911.964,556.845,832.904C607.717,749.277,661.904,651.513,615.57,565.289C567.716,476.235,455.525,458.144,354.446,456.254C248.839,454.28,129.559,464.251,75.845,555.199C21.559,647.116,64.452,760.317,121.621,850.47C174.006,933.079,256.708,998.486,354.446,994.541" fill="rgba(41, 196, 241, 0.3)" class="triangle-float1"></path><path d="M1075.183,2402.332C1206.012,2408.279,1335.282,2346.393,1400.087,2232.586C1464.304,2119.812,1439.845,1984.251,1378.313,1869.99C1312.742,1748.228,1213.357,1635.046,1075.183,1629.256C928.695,1623.118,788.245,1710.512,724.609,1842.599C667.25,1961.655,727.557,2093.206,797.704,2205.205C862.252,2308.264,953.704,2396.81,1075.183,2402.332" fill="rgba(41, 196, 241, 0.3)" class="triangle-float2"></path><path d="M687.977,1864.451C786.622,1869.649,872.758,1802.335,921.51,1716.421C969.593,1631.686,978.519,1526.268,926.692,1443.769C877.571,1365.578,780.309,1343.454,687.977,1344.681C598.27,1345.873,503.653,1371.59,460.002,1449.97C417.207,1526.812,451.118,1616.802,493.507,1693.869C538.047,1774.846,595.687,1859.588,687.977,1864.451" fill="rgba(41, 196, 241, 0.3)" class="triangle-float2"></path><path d="M1605.949,2597.183C1802.712,2609.376,2031.163,2616.212,2137.886,2450.458C2249.968,2276.381,2185.898,2047.083,2071.058,1874.813C1968.902,1721.57,1789.967,1644.982,1605.949,1652.508C1434.996,1659.5,1288.297,1762.383,1202.375,1910.34C1116.033,2059.02,1090.032,2242.684,1177.133,2390.921C1263.256,2537.495,1436.271,2586.668,1605.949,2597.183" fill="rgba(41, 196, 241, 0.3)" class="triangle-float1"></path></g><defs><mask id="SvgjsMask1377"><rect width="2000" height="2000" fill="#ffffff"></rect></mask><style>
            @keyframes float1 {
                0%{transform: translate(0, 0)}
                50%{transform: translate(-10px, 0)}
                100%{transform: translate(0, 0)}
            }

            .triangle-float1 {
                animation: float1 5s infinite;
            }

            @keyframes float2 {
                0%{transform: translate(0, 0)}
                50%{transform: translate(-5px, -5px)}
                100%{transform: translate(0, 0)}
            }

            .triangle-float2 {
                animation: float2 4s infinite;
            }

            @keyframes float3 {
                0%{transform: translate(0, 0)}
                50%{transform: translate(0, -10px)}
                100%{transform: translate(0, 0)}
            }

            .triangle-float3 {
                animation: float3 6s infinite;
            }
        </style></defs></svg>