<svg xmlns="http://www.w3.org/2000/svg" version="1.1" xmlns:xlink="http://www.w3.org/1999/xlink" xmlns:svgjs="http://svgjs.com/svgjs" width="2000" height="2000" preserveAspectRatio="none" viewBox="0 0 2000 2000"><g mask="url(&quot;#SvgjsMask1018&quot;)" fill="none"><rect width="2000" height="2000" x="0" y="0" fill="rgba(38, 40, 43, 1)"></rect><path d="M742.407,945.673C832.735,947.586,936.86,952.017,985.468,875.859C1036.354,796.132,1006.032,692.408,954.801,612.902C908.13,540.473,828.552,496.889,742.407,498.652C659.258,500.353,588.118,550.454,544.552,621.296C498.47,696.23,470.735,790.828,516.544,865.93C561.106,938.987,656.851,943.861,742.407,945.673" fill="rgba(41, 196, 241, 0.3)" class="triangle-float1"></path><path d="M1289.581,260.06C1370.144,258.757,1445.889,220.306,1486.99,151.003C1528.93,80.285,1530.679,-7.243,1490.725,-79.102C1449.616,-153.039,1374.058,-208.541,1289.581,-204.046C1210.732,-199.85,1161.864,-127.884,1122.383,-59.502C1082.9,8.882,1044.187,87.606,1080.794,157.572C1119.316,231.198,1206.497,261.404,1289.581,260.06" fill="rgba(41, 196, 241, 0.3)" class="triangle-float2"></path><path d="M906.086,1657.83C1063.336,1654,1197.411,1553.758,1274.386,1416.582C1349.606,1282.534,1360.579,1119.027,1282.839,986.425C1205.93,855.241,1058.058,793.712,906.086,788.369C742.47,782.617,566.686,819.038,480.473,958.216C390.592,1103.315,416.63,1289.497,505.339,1435.315C590.452,1575.222,742.372,1661.818,906.086,1657.83" fill="rgba(41, 196, 241, 0.3)" class="triangle-float1"></path><path d="M2048.713,2526.876C2230.014,2523.626,2396.362,2418.583,2478.525,2256.936C2554.099,2108.252,2500.85,1940.262,2421.431,1793.596C2336.698,1637.118,2226.633,1466.311,2048.713,1463.192C1867.517,1460.015,1741.784,1622.328,1652.652,1780.118C1565.406,1934.568,1508.245,2116.126,1591.36,2272.837C1678.937,2437.961,1861.832,2530.226,2048.713,2526.876" fill="rgba(41, 196, 241, 0.3)" class="triangle-float2"></path><path d="M417.693,1110.821C558.132,1112.658,656.388,992.418,731.091,873.481C812.878,743.265,908.519,586.705,829.882,454.563C752.045,323.764,569.812,341.68,417.693,346.842C278.365,351.57,120.984,360.261,51.265,480.983C-18.463,601.721,48.071,744.947,118.184,865.462C187.743,985.025,279.38,1109.011,417.693,1110.821" fill="rgba(41, 196, 241, 0.3)" class="triangle-float2"></path><path d="M-24.966,600.715C36.271,600.162,73.894,541.249,104.211,488.04C134.105,435.572,163.22,374.526,134.025,321.666C104.19,267.647,36.687,251.482,-24.966,254.153C-81.589,256.606,-133.916,285.116,-161.764,334.479C-189.144,383.012,-183.719,440.848,-158.252,490.412C-130.003,545.389,-86.773,601.274,-24.966,600.715" fill="rgba(41, 196, 241, 0.3)" class="triangle-float2"></path><path d="M1295.519,1829.751C1482.003,1829.284,1628.635,1678.414,1707.74,1509.538C1775.658,1364.544,1738.887,1200.327,1653.922,1064.617C1574.832,938.291,1444.401,858.022,1295.519,851.119C1132.484,843.56,961.475,890.36,874.522,1028.479C782.558,1174.558,799.42,1358.803,879.707,1511.611C966.707,1677.196,1108.471,1830.219,1295.519,1829.751" fill="rgba(41, 196, 241, 0.3)" class="triangle-float3"></path><path d="M1285.991,1580.666C1351.467,1585.068,1425.793,1575.683,1459.055,1519.113C1492.6,1462.063,1463.028,1393.402,1429.731,1336.207C1396.713,1279.492,1351.558,1224.619,1285.991,1221.837C1216.43,1218.886,1150.362,1260.657,1119.452,1323.043C1091.266,1379.931,1114.563,1444.953,1149.03,1498.27C1180.031,1546.226,1229.016,1576.835,1285.991,1580.666" fill="rgba(41, 196, 241, 0.3)" class="triangle-float3"></path><path d="M480.058,1060.381C602.453,1064.003,734.69,1030.184,794.109,923.118C852.338,818.196,799.74,695.79,740.224,591.593C680.045,486.235,601.249,379.176,480.058,373.295C350.808,367.023,232.977,449.815,172.146,564.027C114.659,671.959,132.166,801.521,196.63,905.437C257.465,1003.502,364.706,1056.967,480.058,1060.381" fill="rgba(41, 196, 241, 0.3)" class="triangle-float1"></path><path d="M1052.828,2134.103C1224.002,2134.069,1380.288,2037.129,1463.708,1887.658C1545.075,1741.866,1531.76,1566.679,1451.092,1420.499C1367.313,1268.682,1226.167,1138.544,1052.828,1143.097C885.062,1147.504,770.342,1293.592,689.228,1440.512C611.553,1581.203,567.05,1745.483,641.667,1887.82C721.169,2039.475,881.598,2134.137,1052.828,2134.103" fill="rgba(41, 196, 241, 0.3)" class="triangle-float3"></path></g><defs><mask id="SvgjsMask1018"><rect width="2000" height="2000" fill="#ffffff"></rect></mask></defs></svg>