<svg xmlns="http://www.w3.org/2000/svg" version="1.1" xmlns:xlink="http://www.w3.org/1999/xlink" xmlns:svgjs="http://svgjs.com/svgjs" width="1440" height="560" preserveAspectRatio="none" viewBox="0 0 1440 560"><g mask="url(&quot;#SvgjsMask1009&quot;)" fill="none"><rect width="1440" height="560" x="0" y="0" fill="rgba(8, 111, 139, 1)"></rect><path d="M264.82 580.06C417.24 551.7 481.22 173.22 728.09 167.81 974.97 162.4 959.73 237.81 1191.37 237.81 1423 237.81 1537.51 168.01 1654.64 167.81" stroke="rgba(50, 50, 50, 1)" stroke-width="2"></path><path d="M245.08 632.38C410.83 628.72 533.6 410.49 867.01 402.15 1200.42 393.81 1321.25 154.88 1488.94 150.15" stroke="rgba(50, 50, 50, 1)" stroke-width="2"></path><path d="M387.26 660.05C582.59 641.27 711.44 229.08 1042.92 228.54 1374.4 228 1524.47 460.22 1698.58 463.74" stroke="rgba(50, 50, 50, 1)" stroke-width="2"></path><path d="M735.96 662.97C832.38 637.22 762.62 396.43 1008.18 370.97 1253.74 345.51 1401.58 114.55 1552.61 107.77" stroke="rgba(50, 50, 50, 1)" stroke-width="2"></path><path d="M550.73 605.62C677.24 560.98 599.69 203.26 884.8 185.69 1169.91 168.12 1382.83 57.48 1552.94 56.89" stroke="rgba(50, 50, 50, 1)" stroke-width="2"></path></g><defs><mask id="SvgjsMask1009"><rect width="1440" height="560" fill="#ffffff"></rect></mask></defs></svg>